<?xml version="1.0" standalone="no"?>
<!DOCTYPE svg PUBLIC "-//W3C//DTD SVG 20010904//EN"
 "http://www.w3.org/TR/2001/REC-SVG-20010904/DTD/svg10.dtd">
<svg version="1.0" xmlns="http://www.w3.org/2000/svg"
 width="300.000000pt" height="295.000000pt" viewBox="0 0 300.000000 295.000000"
 preserveAspectRatio="xMidYMid meet">

<g transform="translate(0.000000,295.000000) scale(0.100000,-0.100000)"
fill="#ffffff" stroke="none">
<path d="M1315 2935 c-27 -7 -59 -16 -69 -20 -14 -6 -17 -5 -12 3 13 21 -8 12
-56 -23 -26 -19 -50 -45 -53 -58 -5 -17 -20 -26 -63 -39 -31 -10 -70 -29 -87
-43 -22 -20 -25 -25 -10 -20 17 5 16 2 -6 -22 -41 -44 -43 -53 -55 -263 -5
-94 -2 -132 14 -210 11 -52 23 -103 27 -112 5 -14 2 -18 -13 -18 -34 0 -44
-24 -39 -92 5 -70 62 -244 94 -286 12 -15 28 -26 37 -26 11 1 19 -11 26 -40 6
-22 24 -72 42 -111 36 -80 43 -124 33 -200 -6 -49 -10 -56 -43 -77 -20 -12
-60 -44 -88 -70 -42 -39 -76 -58 -211 -113 -89 -36 -233 -89 -321 -119 -232
-79 -307 -122 -369 -214 -63 -91 -93 -286 -93 -599 l0 -163 1493 0 1494 0 6
113 c13 219 8 386 -13 474 -33 138 -105 259 -176 296 -29 15 -536 220 -671
271 -57 22 -86 41 -135 89 -35 34 -73 70 -86 79 -35 28 -30 107 12 210 18 46
39 106 45 133 11 45 15 51 38 50 36 0 69 67 94 191 10 52 23 103 29 114 23 43
-2 109 -36 96 -8 -3 -14 -4 -14 -3 0 1 7 34 15 72 57 271 -63 555 -279 660
-68 33 -237 75 -304 75 -16 0 -45 3 -63 7 -34 8 -33 8 16 14 45 5 42 6 -25 7
-41 0 -97 -5 -125 -13z"/>
</g>
</svg>
