<?xml version="1.0" standalone="no"?>
<!DOCTYPE svg PUBLIC "-//W3C//DTD SVG 20010904//EN"
 "http://www.w3.org/TR/2001/REC-SVG-20010904/DTD/svg10.dtd">
<svg version="1.0" xmlns="http://www.w3.org/2000/svg"
 width="226.000000pt" height="223.000000pt" viewBox="0 0 226.000000 223.000000"
 preserveAspectRatio="xMidYMid meet">

<g transform="translate(0.000000,223.000000) scale(0.100000,-0.100000)"
fill="#ffffff" stroke="none">
<path d="M1050 1831 c-197 -157 -647 -514 -665 -527 -19 -14 -18 -15 21 -55
l41 -41 347 276 347 276 97 -78 c53 -43 209 -167 346 -276 l249 -198 41 41
c39 40 40 41 21 55 -11 8 -137 107 -280 221 -361 288 -465 370 -473 372 -4 1
-45 -28 -92 -66z"/>
<path d="M590 1685 c0 -69 3 -125 7 -125 3 0 48 34 100 76 l93 76 0 49 0 49
-100 0 -100 0 0 -125z"/>
<path d="M1114 1642 c-11 -9 -134 -107 -272 -216 l-252 -200 0 -307 c0 -268 2
-310 16 -324 14 -13 41 -15 187 -13 l172 3 3 139 c1 82 7 145 14 153 15 19
301 19 316 0 7 -8 13 -71 14 -153 l3 -139 172 -3 c146 -2 173 0 187 13 14 14
16 56 16 324 l0 307 -270 215 c-149 118 -273 215 -278 216 -4 1 -16 -5 -28
-15z"/>
</g>
</svg>
