<?xml version="1.0" standalone="no"?>
<!DOCTYPE svg PUBLIC "-//W3C//DTD SVG 20010904//EN"
 "http://www.w3.org/TR/2001/REC-SVG-20010904/DTD/svg10.dtd">
<svg version="1.0" xmlns="http://www.w3.org/2000/svg"
 width="820.000000pt" height="719.000000pt" viewBox="0 0 820.000000 719.000000"
 preserveAspectRatio="xMidYMid meet">

<g transform="translate(0.000000,719.000000) scale(0.100000,-0.100000)"
fill="#ffffff" stroke="none">
<path d="M3730 6774 c-335 -40 -519 -76 -765 -150 -66 -20 -136 -40 -155 -46
-19 -6 -39 -13 -45 -17 -5 -4 -30 -14 -55 -21 -25 -7 -49 -17 -55 -20 -5 -4
-23 -12 -40 -17 -78 -27 -355 -160 -492 -237 -166 -93 -355 -224 -564 -390
-108 -86 -416 -393 -523 -521 -421 -504 -707 -1087 -846 -1724 -34 -160 -41
-205 -70 -471 -53 -496 3 -1034 163 -1555 100 -325 285 -712 485 -1015 110
-166 319 -433 332 -425 5 3 22 35 40 73 37 80 65 123 141 217 76 94 209 215
304 278 22 15 72 50 110 77 39 28 79 55 90 60 11 6 59 34 107 64 207 128 590
333 758 406 41 18 93 40 115 50 22 10 78 32 125 50 200 75 310 151 355 245 24
49 27 63 23 137 -5 105 -25 147 -137 296 -241 318 -364 522 -481 797 -45 106
-130 356 -130 383 0 8 -4 29 -9 46 -12 38 -35 154 -53 261 -17 108 -17 602 0
705 49 287 128 510 248 700 137 218 285 363 499 489 189 112 336 163 620 216
129 24 487 25 605 1 256 -52 355 -84 515 -166 348 -180 610 -496 740 -895 54
-166 68 -232 90 -445 25 -230 13 -510 -30 -725 -34 -174 -125 -463 -185 -592
-11 -24 -20 -45 -20 -49 0 -3 -27 -59 -60 -124 -69 -139 -137 -244 -249 -390
-150 -194 -224 -315 -255 -419 -19 -63 -21 -193 -5 -242 32 -96 209 -215 456
-309 43 -16 121 -45 173 -65 52 -19 109 -42 125 -49 17 -8 59 -26 95 -41 94
-39 402 -192 488 -242 41 -24 75 -43 77 -43 9 0 228 -150 290 -198 103 -82
253 -237 308 -319 26 -40 66 -109 88 -154 40 -81 40 -81 61 -63 25 23 194 234
229 285 13 20 46 70 74 110 245 365 422 756 541 1194 28 105 64 279 82 400 6
39 16 104 22 145 23 156 33 469 21 676 -6 110 -15 226 -20 259 -5 33 -15 98
-21 145 -28 208 -107 521 -187 740 -301 824 -842 1508 -1577 1995 -79 52 -146
95 -150 95 -3 0 -29 15 -58 34 -66 41 -336 177 -403 201 -27 10 -55 22 -60 26
-10 7 -167 66 -250 94 -433 143 -833 206 -1289 204 -133 -1 -293 -7 -356 -15z"/>
</g>
</svg>
