<?xml version="1.0" standalone="no"?>
<!DOCTYPE svg PUBLIC "-//W3C//DTD SVG 20010904//EN"
 "http://www.w3.org/TR/2001/REC-SVG-20010904/DTD/svg10.dtd">
<svg version="1.0" xmlns="http://www.w3.org/2000/svg"
 width="640.000000pt" height="640.000000pt" viewBox="0 0 640.000000 640.000000"
 preserveAspectRatio="xMidYMid meet">

<g transform="translate(0.000000,640.000000) scale(0.100000,-0.100000)"
fill="#ffffff" stroke="none">
<path d="M2025 6035 c-308 -129 -564 -235 -568 -237 -5 -2 38 -205 94 -451
l103 -448 -76 -76 -76 -76 -447 102 c-246 57 -448 101 -450 99 -4 -5 -467
-1121 -472 -1139 -3 -12 94 -77 386 -259 l390 -242 0 -109 0 -108 -390 -242
c-214 -133 -389 -245 -389 -249 0 -8 470 -1142 476 -1149 2 -2 204 42 450 99
l447 102 75 -75 76 -76 -102 -447 c-56 -246 -101 -449 -99 -450 12 -12 1142
-474 1151 -471 6 3 117 174 245 381 129 207 238 379 244 383 5 3 56 6 114 7
l104 1 241 -388 c132 -213 245 -387 252 -387 12 0 1135 466 1144 474 3 3 -41
206 -97 451 l-102 445 76 76 76 76 446 -102 c351 -81 447 -99 454 -89 24 39
470 1132 466 1142 -3 7 -176 118 -386 247 l-381 235 3 115 2 114 375 233 c206
128 379 239 384 246 6 9 -67 196 -224 574 -128 308 -235 566 -239 572 -6 9
-126 -15 -455 -90 l-447 -102 -76 75 -75 75 101 439 c56 241 101 444 101 450
0 10 -1125 484 -1148 484 -5 0 -117 -175 -250 -388 l-242 -388 -109 0 -108 0
-240 385 c-132 212 -247 387 -254 388 -8 1 -266 -104 -574 -232z m668 -541
l219 -349 96 5 c138 7 272 6 383 -3 l95 -7 212 337 c116 186 217 346 224 356
13 18 31 11 318 -108 168 -69 308 -129 312 -133 4 -4 -35 -190 -87 -412 l-94
-405 62 -54 c82 -72 253 -244 303 -304 l40 -48 409 95 c225 52 410 94 411 93
6 -7 254 -617 254 -624 -1 -4 -160 -107 -355 -228 l-355 -220 7 -50 c10 -63
10 -403 1 -470 l-8 -50 351 -219 c192 -120 352 -223 355 -228 4 -6 -239 -612
-251 -626 -1 -1 -186 41 -410 93 l-409 95 -45 -53 c-58 -68 -253 -262 -313
-313 l-47 -39 95 -409 c52 -224 94 -409 92 -411 -2 -1 -142 -59 -312 -129
-253 -105 -311 -125 -321 -114 -6 7 -107 167 -224 355 l-213 342 -81 -7 c-95
-8 -285 -9 -407 -2 l-84 5 -218 -345 c-119 -190 -219 -349 -221 -355 -3 -9
-596 229 -622 250 -9 8 9 103 82 414 l94 405 -73 65 c-92 82 -208 198 -279
278 l-54 62 -405 -94 c-223 -51 -408 -91 -412 -87 -5 5 -209 493 -255 609 -2
6 149 107 352 233 l356 222 -8 102 c-10 128 -10 233 0 366 l8 105 -351 219
c-193 121 -353 223 -355 226 -4 7 241 609 254 622 3 3 188 -36 411 -88 l405
-95 75 83 c94 106 177 188 263 264 l69 60 -91 389 c-49 215 -91 399 -93 409
-3 17 41 38 302 147 168 70 310 126 315 125 6 -1 108 -160 228 -352z"/>
<path d="M3083 4330 c-260 -27 -505 -147 -693 -340 -157 -161 -256 -347 -300
-560 -19 -91 -21 -127 -17 -270 6 -185 22 -261 85 -409 255 -591 951 -853
1529 -576 127 60 203 114 306 214 351 341 443 858 232 1298 -57 119 -110 197
-199 291 -243 257 -591 387 -943 352z m224 -341 c343 -46 618 -308 678 -646
70 -390 -153 -771 -524 -898 -380 -129 -798 43 -971 399 -64 132 -83 211 -83
356 0 218 72 398 222 553 177 184 425 271 678 236z"/>
</g>
</svg>
